<?xml version="1.0" standalone="no"?>
<!DOCTYPE svg PUBLIC "-//W3C//DTD SVG 20010904//EN"
 "http://www.w3.org/TR/2001/REC-SVG-20010904/DTD/svg10.dtd">
<svg version="1.0" xmlns="http://www.w3.org/2000/svg"
 width="700.000000pt" height="700.000000pt" viewBox="0 0 700.000000 700.000000"
 preserveAspectRatio="xMidYMid meet">
<metadata>
Created by potrace 1.11, written by Peter Selinger 2001-2013
</metadata>
<g transform="translate(0.000000,700.000000) scale(0.100000,-0.100000)"
fill="#000000" stroke="none">
<path d="M3099 6320 c-63 -21 -213 -78 -334 -128 -325 -132 -559 -227 -850
-345 -143 -58 -361 -147 -485 -197 -124 -50 -298 -121 -387 -157 -224 -90
-304 -141 -394 -253 -102 -127 -144 -302 -108 -454 10 -42 59 -166 144 -361 7
-16 37 -86 65 -155 52 -123 74 -176 91 -215 5 -11 52 -123 105 -250 53 -126
102 -243 109 -260 7 -16 30 -70 50 -120 21 -49 43 -103 51 -120 7 -16 90 -214
184 -440 95 -225 178 -423 185 -440 32 -74 130 -307 210 -500 48 -115 95 -228
105 -250 10 -22 46 -107 80 -190 186 -450 224 -507 405 -595 181 -89 357 -95
539 -18 39 16 125 52 191 80 66 27 134 56 150 63 17 7 102 43 190 80 88 37
174 73 190 80 17 8 84 36 150 63 156 65 946 395 1145 479 164 70 222 105 287
176 93 100 135 218 137 376 1 58 -3 131 -7 161 -5 38 -218 545 -723 1725 -846
1973 -809 1888 -847 1944 -79 116 -199 198 -347 236 -113 30 -154 27 -281 -15z
m180 -576 c6 -14 32 -76 57 -138 25 -61 52 -124 59 -141 8 -16 116 -275 240
-575 125 -300 233 -558 240 -575 30 -66 838 -2011 842 -2025 4 -17 -5 -22
-168 -89 -52 -21 -164 -68 -249 -104 -85 -36 -243 -101 -350 -146 -107 -45
-204 -86 -215 -91 -11 -5 -204 -86 -430 -181 -419 -175 -506 -212 -655 -272
l-84 -35 -189 452 c-104 248 -195 467 -202 486 -17 44 -91 224 -109 264 -8 17
-60 141 -116 276 -56 135 -117 281 -135 325 -156 371 -515 1236 -515 1240 0 2
-11 28 -24 57 -13 29 -41 94 -61 143 -21 50 -53 126 -71 169 -19 44 -34 81
-34 83 0 4 67 33 295 128 116 47 224 92 240 100 17 7 269 113 560 235 653 273
801 336 935 393 58 25 110 45 116 46 6 1 16 -11 23 -25z"/>
<path d="M4297 6352 c-3 -4 123 -313 279 -687 157 -374 297 -711 313 -750 54
-133 182 -440 196 -470 7 -16 59 -140 115 -275 56 -135 104 -247 106 -249 2
-3 4 425 4 950 -1 1060 1 1030 -68 1169 -67 136 -209 253 -362 298 -49 15
-576 28 -583 14z"/>
<path d="M5863 4582 c0 -1054 2 -1301 12 -1281 7 13 69 155 138 314 68 160
225 522 347 805 211 488 244 568 257 615 11 39 12 211 1 260 -14 70 -71 189
-115 244 -80 99 -132 134 -324 217 -85 36 -174 75 -198 86 -25 11 -61 26 -81
33 l-37 13 0 -1306z"/>
</g>
</svg>
